<svg width="512" xmlns="http://www.w3.org/2000/svg" height="512" fill="none"><defs><clipPath id="a" class="frame-clip frame-clip-def"><rect rx="0" ry="0" width="512" height="512" transform="matrix(1.000000, 0.000000, 0.000000, 1.000000, 0.000000, 0.000000)"/></clipPath></defs><g class="frame-container-wrapper"><g class="frame-container-blur"><g clip-path="url(#a)" class="frame-container-shadows"><g class="fills"><rect rx="0" ry="0" width="512" height="512" transform="matrix(1.000000, 0.000000, 0.000000, 1.000000, 0.000000, 0.000000)" class="frame-background"/></g><g class="frame-children"><rect rx="20" ry="20" x="256" y="256" transform="matrix(1.000000, 0.000000, 0.000000, 1.000000, 0.000000, 0.000000)" width="206" height="206" style="fill: rgb(132, 150, 204); fill-opacity: 1;" class="fills"/><rect rx="10" ry="10" x="288" y="288" transform="matrix(1.000000, 0.000000, 0.000000, 1.000000, 0.000000, 0.000000)" width="142" height="142" style="fill: rgb(85, 107, 175); fill-opacity: 1;" class="fills"/><rect rx="20" ry="20" x="50" y="50" transform="matrix(1.000000, 0.000000, 0.000000, 1.000000, 0.000000, 0.000000)" width="206" height="206" style="fill: rgb(132, 150, 204); fill-opacity: 1;" class="fills"/><rect rx="10" ry="10" x="82" y="82" transform="matrix(1.000000, 0.000000, 0.000000, 1.000000, 0.000000, 0.000000)" width="142" height="142" style="fill: rgb(85, 107, 175); fill-opacity: 1;" class="fills"/></g></g><g class="strokes"><g class="stroke-shape"><rect width="512" height="512" class="frame-background" transform="matrix(1.000000, 0.000000, 0.000000, 1.000000, 0.000000, 0.000000)" style="fill: none;" ry="0" rx="0"/></g></g></g></g></svg>